<svg viewBox="0 0 256 256" fill="none" xmlns="http://www.w3.org/2000/svg">
  <rect width="256" height="256" rx="60" fill="url(#g)"/>
  <ellipse cx="78"  cy="114" rx="21" ry="19" fill="white" fill-opacity="0.92"/>
  <ellipse cx="109" cy="93"  rx="21" ry="19" fill="white" fill-opacity="0.92"/>
  <ellipse cx="147" cy="93"  rx="21" ry="19" fill="white" fill-opacity="0.92"/>
  <ellipse cx="178" cy="114" rx="21" ry="19" fill="white" fill-opacity="0.92"/>
  <ellipse cx="128" cy="158" rx="47" ry="41" fill="white" fill-opacity="0.92"/>
  <path d="M128 175C128 175 103 158 103 143C103 132 111 125 120.5 128C124 129.5 127 132.5 128 136C129 132.5 132 129.5 135.5 128C145 125 153 132 153 143C153 158 128 175 128 175Z" fill="#16A34A"/>
  <defs>
    <linearGradient id="g" x1="0" y1="0" x2="256" y2="256" gradientUnits="userSpaceOnUse">
      <stop stop-color="#4ADE80"/>
      <stop offset="1" stop-color="#15803D"/>
    </linearGradient>
  </defs>
</svg>
